<?xml version="1.0" standalone="no"?>
<!DOCTYPE svg PUBLIC "-//W3C//DTD SVG 1.1//EN"
  "http://www.w3.org/Graphics/SVG/1.1/DTD/svg11.dtd">
<!-- Created with matplotlib (http://matplotlib.sourceforge.net/) -->
<svg width="576pt" height="279pt" viewBox="0 0 576 279"
   xmlns="http://www.w3.org/2000/svg"
   xmlns:xlink="http://www.w3.org/1999/xlink"
   version="1.1"
   id="svg1">
<filter id="colorAdd"><feComposite in="SourceGraphic" in2="BackgroundImage" operator="arithmetic" k2="1" k3="1"/></filter>
<g id="figure1">
<g id="patch1">
<path style="fill: #ffffff; stroke: #ffffff; stroke-width: 1.000000; stroke-linejoin: round; stroke-linecap: square;  opacity: 1.000000"  d="M0.000000 279.900000L576.000000 279.900000L576.000000 0.000000
L0.000000 0.000000L0.000000 279.900000"/>
</g>
<g id="axes1">
<g id="patch2">
<path style="fill: #ffffff; opacity: 1.000000"  d="M72.000000 251.910000L518.400000 251.910000L518.400000 27.990000
L72.000000 27.990000L72.000000 251.910000"/>
</g>
<g id="line2d1">
<defs>
  <clipPath id="pd0e9ee628ce1895899615e51f338a317">
<rect x="72.000000" y="27.990000" width="446.400000" height="223.920000"/>
  </clipPath>
</defs><path style="fill: none; stroke: #ff0000; stroke-width: 1.000000; stroke-linejoin: round; stroke-linecap: square;  opacity: 1.000000" clip-path="url(#pd0e9ee628ce1895899615e51f338a317)" d="M82.207307 251.198773L94.813546 250.467870L102.692445 249.444054
L108.995565 248.080468L115.298684 246.107052L123.177583 242.817454
L138.935382 235.677262L145.238501 233.814185L149.965841 233.052121
L156.268960 232.816230L164.147860 233.319011L178.329878 234.299128
L186.208778 234.209292L192.511897 233.512726L195.663457 232.655128
L198.815016 231.074778L201.966576 228.268007L203.542356 226.197643
L205.118136 223.555453L208.269695 216.165572L211.421255 205.409337
L214.572815 190.905082L217.724375 172.744690L222.451714 139.893293
L230.330613 76.995803L233.482173 53.678298L235.057953 44.296778
L236.633733 37.386971L238.209513 33.629258L239.785293 33.514335
L241.361072 37.213177L242.936852 44.500392L246.088412 67.149821
L260.270431 188.096802L263.421990 207.672094L264.997770 214.563770
L266.573550 219.570790L268.149330 222.972661L269.725110 225.132055
L271.300890 226.405949L272.876670 227.090986L276.028229 227.493600
L280.755569 227.147356L294.937587 225.006269L299.664927 223.842522
L302.816487 222.628262L305.968046 220.877303L309.119606 218.470963
L312.271166 215.386400L316.998505 209.778140L323.301625 202.075341
L326.453185 198.933166L329.604744 196.544252L334.332084 194.055661
L337.483644 192.442095L340.635203 190.116954L343.786763 186.553565
L346.938323 181.588307L351.665662 172.316918L356.393002 163.271097
L359.544562 158.842149L361.120341 157.354124L362.696121 156.406443
L364.271901 156.009731L365.847681 156.151141L367.423461 156.797380
L370.575021 159.392795L373.726580 163.276680L386.332819 180.847219
L389.484379 183.798684L392.635939 185.836362L395.787498 187.056243
L406.817957 190.053295L409.969517 192.539285L413.121077 196.215399
L417.848416 202.255100L419.424196 203.575122L420.999976 204.190162
L422.575756 204.057787L427.303095 202.290968L428.878875 203.168246
L430.454655 205.648321L432.030435 209.820472L435.181995 221.706826
L438.333554 233.913082L439.909334 238.762654L441.485114 242.503195
L443.060894 245.204899L444.636674 247.058044L446.212454 248.286602
L449.364013 249.622314L454.091353 250.428039L463.546032 250.968251
L474.576491 251.240796L474.576491 251.240796"/>
</g>
<g id="matplotlib.axis1">
<g id="xtick1">
<g id="line2d2">
<defs><path id="m30e32995789d870ad79a2e54c91cf9c6" d="M0.000000 0.000000L0.000000 -4.000000"/></defs>
<g ><use style="fill: none; stroke: #000000; stroke-width: 0.500000; stroke-linejoin: round; stroke-linecap: butt;  opacity: 1.000000" xlink:href="#m30e32995789d870ad79a2e54c91cf9c6" x="72.000000" y="251.910000"/>
</g></g>
<g id="line2d3">
<defs><path id="m9281cae24120827b11d5ea8a7ad3e96b" d="M0.000000 0.000000L0.000000 4.000000"/></defs>
<g ><use style="fill: none; stroke: #000000; stroke-width: 0.500000; stroke-linejoin: round; stroke-linecap: butt;  opacity: 1.000000" xlink:href="#m9281cae24120827b11d5ea8a7ad3e96b" x="72.000000" y="27.990000"/>
</g></g>
<g id="text1">
<defs>
<path id="c_6a8d56c819c37117ab4cf023bec22a5a" d="M10.593750 -35.500000l62.593750 0.000000l0.000000 8.296875l-62.593750 0.000000z"/>
<path id="c_cc8d6d580d1b10c8632f7a42cd53db8a" d="M33.015625 -40.375000q-6.640625 0.000000 -10.531250 4.546875q-3.875000 4.531250 -3.875000 12.437500q0.000000 7.859375 3.875000 12.437500q3.890625 4.562500 10.531250 4.562500q6.640625 0.000000 10.515625 -4.562500q3.875000 -4.578125 3.875000 -12.437500q0.000000 -7.906250 -3.875000 -12.437500q-3.875000 -4.546875 -10.515625 -4.546875M52.593750 -71.296875l0.000000 8.984375q-3.718750 -1.750000 -7.500000 -2.671875q-3.781250 -0.937500 -7.500000 -0.937500q-9.765625 0.000000 -14.921875 6.593750q-5.140625 6.593750 -5.875000 19.921875q2.875000 -4.250000 7.218750 -6.515625q4.359375 -2.265625 9.578125 -2.265625q10.984375 0.000000 17.359375 6.671875q6.375000 6.656250 6.375000 18.125000q0.000000 11.234375 -6.640625 18.031250q-6.640625 6.781250 -17.671875 6.781250q-12.656250 0.000000 -19.343750 -9.687500q-6.687500 -9.703125 -6.687500 -28.109375q0.000000 -17.281250 8.203125 -27.562500q8.203125 -10.281250 22.015625 -10.281250q3.718750 0.000000 7.500000 0.734375q3.781250 0.734375 7.890625 2.187500"/>
</defs>
<g style="fill: #000000; opacity: 1.000000" transform="translate(64.164063,264.816250)scale(0.120000)">
<use xlink:href="#c_6a8d56c819c37117ab4cf023bec22a5a"/>
<use xlink:href="#c_cc8d6d580d1b10c8632f7a42cd53db8a" x="83.789062"/>
</g>
</g>
</g>
<g id="xtick2">
<g id="line2d4">
<g ><use style="fill: none; stroke: #000000; stroke-width: 0.500000; stroke-linejoin: round; stroke-linecap: butt;  opacity: 1.000000" xlink:href="#m30e32995789d870ad79a2e54c91cf9c6" x="146.400000" y="251.910000"/>
</g></g>
<g id="line2d5">
<g ><use style="fill: none; stroke: #000000; stroke-width: 0.500000; stroke-linejoin: round; stroke-linecap: butt;  opacity: 1.000000" xlink:href="#m9281cae24120827b11d5ea8a7ad3e96b" x="146.400000" y="27.990000"/>
</g></g>
<g id="text2">
<defs>
<path id="c_a0416418d96557a09b8c1332d34883ba" d="M37.796875 -64.312500l-24.906250 38.921875l24.906250 0.000000zM35.203125 -72.906250l12.406250 0.000000l0.000000 47.515625l10.406250 0.000000l0.000000 8.203125l-10.406250 0.000000l0.000000 17.187500l-9.812500 0.000000l0.000000 -17.187500l-32.906250 0.000000l0.000000 -9.515625z"/>
</defs>
<g style="fill: #000000; opacity: 1.000000" transform="translate(138.517188,264.660000)scale(0.120000)">
<use xlink:href="#c_6a8d56c819c37117ab4cf023bec22a5a"/>
<use xlink:href="#c_a0416418d96557a09b8c1332d34883ba" x="83.789062"/>
</g>
</g>
</g>
<g id="xtick3">
<g id="line2d6">
<g ><use style="fill: none; stroke: #000000; stroke-width: 0.500000; stroke-linejoin: round; stroke-linecap: butt;  opacity: 1.000000" xlink:href="#m30e32995789d870ad79a2e54c91cf9c6" x="220.800000" y="251.910000"/>
</g></g>
<g id="line2d7">
<g ><use style="fill: none; stroke: #000000; stroke-width: 0.500000; stroke-linejoin: round; stroke-linecap: butt;  opacity: 1.000000" xlink:href="#m9281cae24120827b11d5ea8a7ad3e96b" x="220.800000" y="27.990000"/>
</g></g>
<g id="text3">
<defs>
<path id="c_ed3f3ed3ebfbd18bcb9c012009a68ad1" d="M19.187500 -8.296875l34.421875 0.000000l0.000000 8.296875l-46.281250 0.000000l0.000000 -8.296875q5.609375 -5.812500 15.296875 -15.593750q9.703125 -9.796875 12.187500 -12.640625q4.734375 -5.312500 6.609375 -9.000000q1.890625 -3.687500 1.890625 -7.250000q0.000000 -5.812500 -4.078125 -9.468750q-4.078125 -3.671875 -10.625000 -3.671875q-4.640625 0.000000 -9.796875 1.609375q-5.140625 1.609375 -11.000000 4.890625l0.000000 -9.968750q5.953125 -2.390625 11.125000 -3.609375q5.187500 -1.218750 9.484375 -1.218750q11.328125 0.000000 18.062500 5.671875q6.734375 5.656250 6.734375 15.125000q0.000000 4.500000 -1.687500 8.531250q-1.671875 4.015625 -6.125000 9.484375q-1.218750 1.421875 -7.765625 8.187500q-6.531250 6.765625 -18.453125 18.921875"/>
</defs>
<g style="fill: #000000; opacity: 1.000000" transform="translate(213.182813,264.816250)scale(0.120000)">
<use xlink:href="#c_6a8d56c819c37117ab4cf023bec22a5a"/>
<use xlink:href="#c_ed3f3ed3ebfbd18bcb9c012009a68ad1" x="83.789062"/>
</g>
</g>
</g>
<g id="xtick4">
<g id="line2d8">
<g ><use style="fill: none; stroke: #000000; stroke-width: 0.500000; stroke-linejoin: round; stroke-linecap: butt;  opacity: 1.000000" xlink:href="#m30e32995789d870ad79a2e54c91cf9c6" x="295.200000" y="251.910000"/>
</g></g>
<g id="line2d9">
<g ><use style="fill: none; stroke: #000000; stroke-width: 0.500000; stroke-linejoin: round; stroke-linecap: butt;  opacity: 1.000000" xlink:href="#m9281cae24120827b11d5ea8a7ad3e96b" x="295.200000" y="27.990000"/>
</g></g>
<g id="text4">
<defs>
<path id="c_7a2040fe3b94fcd41d0a72c84e93b115" d="M31.781250 -66.406250q-7.609375 0.000000 -11.453125 7.500000q-3.828125 7.484375 -3.828125 22.531250q0.000000 14.984375 3.828125 22.484375q3.843750 7.500000 11.453125 7.500000q7.671875 0.000000 11.500000 -7.500000q3.843750 -7.500000 3.843750 -22.484375q0.000000 -15.046875 -3.843750 -22.531250q-3.828125 -7.500000 -11.500000 -7.500000M31.781250 -74.218750q12.265625 0.000000 18.734375 9.703125q6.468750 9.687500 6.468750 28.140625q0.000000 18.406250 -6.468750 28.109375q-6.468750 9.687500 -18.734375 9.687500q-12.250000 0.000000 -18.718750 -9.687500q-6.468750 -9.703125 -6.468750 -28.109375q0.000000 -18.453125 6.468750 -28.140625q6.468750 -9.703125 18.718750 -9.703125"/>
</defs>
<g style="fill: #000000; opacity: 1.000000" transform="translate(292.176562,264.816250)scale(0.120000)">
<use xlink:href="#c_7a2040fe3b94fcd41d0a72c84e93b115"/>
</g>
</g>
</g>
<g id="xtick5">
<g id="line2d10">
<g ><use style="fill: none; stroke: #000000; stroke-width: 0.500000; stroke-linejoin: round; stroke-linecap: butt;  opacity: 1.000000" xlink:href="#m30e32995789d870ad79a2e54c91cf9c6" x="369.600000" y="251.910000"/>
</g></g>
<g id="line2d11">
<g ><use style="fill: none; stroke: #000000; stroke-width: 0.500000; stroke-linejoin: round; stroke-linecap: butt;  opacity: 1.000000" xlink:href="#m9281cae24120827b11d5ea8a7ad3e96b" x="369.600000" y="27.990000"/>
</g></g>
<g id="text5">
<g style="fill: #000000; opacity: 1.000000" transform="translate(366.818750,264.816250)scale(0.120000)">
<use xlink:href="#c_ed3f3ed3ebfbd18bcb9c012009a68ad1"/>
</g>
</g>
</g>
<g id="xtick6">
<g id="line2d12">
<g ><use style="fill: none; stroke: #000000; stroke-width: 0.500000; stroke-linejoin: round; stroke-linecap: butt;  opacity: 1.000000" xlink:href="#m30e32995789d870ad79a2e54c91cf9c6" x="444.000000" y="251.910000"/>
</g></g>
<g id="line2d13">
<g ><use style="fill: none; stroke: #000000; stroke-width: 0.500000; stroke-linejoin: round; stroke-linecap: butt;  opacity: 1.000000" xlink:href="#m9281cae24120827b11d5ea8a7ad3e96b" x="444.000000" y="27.990000"/>
</g></g>
<g id="text6">
<g style="fill: #000000; opacity: 1.000000" transform="translate(440.812500,264.660000)scale(0.120000)">
<use xlink:href="#c_a0416418d96557a09b8c1332d34883ba"/>
</g>
</g>
</g>
<g id="xtick7">
<g id="line2d14">
<g ><use style="fill: none; stroke: #000000; stroke-width: 0.500000; stroke-linejoin: round; stroke-linecap: butt;  opacity: 1.000000" xlink:href="#m30e32995789d870ad79a2e54c91cf9c6" x="518.400000" y="251.910000"/>
</g></g>
<g id="line2d15">
<g ><use style="fill: none; stroke: #000000; stroke-width: 0.500000; stroke-linejoin: round; stroke-linecap: butt;  opacity: 1.000000" xlink:href="#m9281cae24120827b11d5ea8a7ad3e96b" x="518.400000" y="27.990000"/>
</g></g>
<g id="text7">
<g style="fill: #000000; opacity: 1.000000" transform="translate(515.384375,264.816250)scale(0.120000)">
<use xlink:href="#c_cc8d6d580d1b10c8632f7a42cd53db8a"/>
</g>
</g>
</g>
<g id="text8">
<defs>
<path id="c_1818d1cfada7f6d37e10aa1f9b131e20" d="M4.984375 -48.390625l0.000000 -19.234375l1.703125 0.000000q0.781250 3.218750 3.609375 3.218750q1.078125 0.000000 4.593750 -1.312500q5.515625 -2.000000 11.578125 -2.000000q8.203125 0.000000 13.171875 4.937500q4.984375 4.921875 4.984375 11.515625q0.000000 6.000000 -3.765625 10.281250q-3.750000 4.265625 -9.953125 6.265625q6.734375 1.218750 10.890625 6.125000q4.156250 4.906250 4.156250 11.546875q0.000000 8.203125 -6.359375 13.390625q-6.343750 5.171875 -15.765625 5.171875q-14.015625 0.000000 -21.734375 -13.281250l1.671875 -1.078125q2.484375 4.046875 7.218750 6.984375q4.734375 2.921875 10.203125 2.921875q6.500000 0.000000 10.078125 -4.312500q3.593750 -4.328125 3.593750 -10.578125q0.000000 -6.437500 -4.546875 -10.875000q-4.531250 -4.453125 -15.031250 -4.453125l0.000000 -3.218750q7.421875 0.000000 11.171875 -1.562500q3.765625 -1.562500 6.109375 -5.078125q2.343750 -3.515625 2.343750 -8.156250q0.000000 -5.375000 -3.265625 -8.781250q-3.265625 -3.421875 -8.890625 -3.421875q-6.984375 0.000000 -10.921875 4.125000q-3.921875 4.125000 -5.140625 10.859375z"/>
<path id="c_5ded83c7768215a54fcbc33b4fb23b4e" d="M17.093750 -24.750000l19.328125 0.000000l0.000000 -9.484375q0.000000 -4.250000 -0.343750 -5.531250q-0.328125 -1.296875 -1.671875 -2.203125q-1.343750 -0.906250 -4.765625 -0.906250l0.000000 -1.859375l21.625000 0.000000l0.000000 1.859375q-3.015625 0.000000 -4.421875 0.687500q-1.390625 0.687500 -1.875000 1.984375q-0.484375 1.281250 -0.484375 5.968750l0.000000 23.734375q0.000000 4.250000 0.359375 5.625000q0.375000 1.359375 1.781250 2.218750q1.421875 0.843750 4.640625 0.843750l0.000000 1.812500l-21.625000 0.000000l0.000000 -1.812500q4.046875 0.000000 5.406250 -1.484375q1.375000 -1.484375 1.375000 -7.203125l0.000000 -11.078125l-19.328125 0.000000l0.000000 11.078125q0.000000 4.250000 0.359375 5.625000q0.375000 1.359375 1.781250 2.218750q1.421875 0.843750 4.640625 0.843750l0.000000 1.812500l-21.625000 0.000000l0.000000 -1.812500q4.343750 0.000000 5.562500 -1.578125q1.218750 -1.593750 1.218750 -7.109375l0.000000 -23.734375q0.000000 -4.250000 -0.375000 -5.609375q-0.359375 -1.375000 -1.781250 -2.203125q-1.406250 -0.828125 -4.625000 -0.828125l0.000000 -1.859375l21.625000 0.000000l0.000000 1.859375q-3.031250 0.000000 -4.421875 0.687500q-1.390625 0.687500 -1.875000 1.984375q-0.484375 1.281250 -0.484375 5.968750z"/>
<path id="c_c63d997d1b9dff23cbba5e445fe5916f" d="M28.468750 -6.453125q-6.890625 5.328125 -8.640625 6.156250q-2.640625 1.218750 -5.625000 1.218750q-4.625000 0.000000 -7.640625 -3.171875q-3.000000 -3.171875 -3.000000 -8.343750q0.000000 -3.281250 1.468750 -5.671875q2.000000 -3.312500 6.953125 -6.234375q4.953125 -2.937500 16.484375 -7.140625l0.000000 -1.750000q0.000000 -6.703125 -2.125000 -9.187500q-2.125000 -2.484375 -6.171875 -2.484375q-3.078125 0.000000 -4.890625 1.656250q-1.859375 1.656250 -1.859375 3.812500l0.109375 2.828125q0.000000 2.250000 -1.156250 3.468750q-1.140625 1.218750 -3.000000 1.218750q-1.812500 0.000000 -2.953125 -1.265625q-1.140625 -1.281250 -1.140625 -3.468750q0.000000 -4.203125 4.296875 -7.718750q4.296875 -3.515625 12.046875 -3.515625q5.968750 0.000000 9.765625 2.000000q2.890625 1.515625 4.250000 4.734375q0.890625 2.109375 0.890625 8.593750l0.000000 15.187500q0.000000 6.406250 0.234375 7.843750q0.250000 1.437500 0.812500 1.921875q0.562500 0.484375 1.296875 0.484375q0.781250 0.000000 1.359375 -0.328125q1.031250 -0.640625 3.953125 -3.578125l0.000000 2.734375q-5.468750 7.328125 -10.453125 7.328125q-2.390625 0.000000 -3.812500 -1.656250q-1.406250 -1.656250 -1.453125 -5.671875M28.468750 -9.625000l0.000000 -17.031250q-7.375000 2.921875 -9.515625 4.140625q-3.859375 2.156250 -5.531250 4.500000q-1.656250 2.343750 -1.656250 5.125000q0.000000 3.515625 2.093750 5.843750q2.109375 2.312500 4.843750 2.312500q3.703125 0.000000 9.765625 -4.890625"/>
<path id="c_1c6c71b088f48ab7e2f07308a7745fc6" d="M33.203125 -24.656250l0.000000 -9.578125q0.000000 -4.640625 -0.468750 -5.968750q-0.453125 -1.343750 -1.906250 -2.000000q-1.437500 -0.671875 -4.359375 -0.671875l0.000000 -1.859375l21.625000 0.000000l0.000000 1.859375q-3.312500 0.000000 -4.421875 0.671875q-1.093750 0.656250 -1.734375 1.640625q-0.625000 0.968750 -0.625000 6.328125l0.000000 23.734375q0.000000 4.640625 0.453125 5.984375q0.468750 1.343750 1.906250 2.031250q1.453125 0.671875 4.421875 0.671875l0.000000 1.812500l-22.703125 0.000000l0.000000 -1.812500q3.906250 -0.140625 5.093750 -0.500000q1.203125 -0.375000 1.953125 -1.890625q0.765625 -1.515625 0.765625 -6.296875l0.000000 -10.937500q-7.171875 3.656250 -15.140625 3.656250q-4.343750 0.000000 -6.734375 -1.093750q-2.390625 -1.093750 -3.031250 -2.531250q-0.625000 -1.453125 -0.625000 -4.671875l0.000000 -8.156250q0.000000 -4.343750 -0.390625 -5.703125q-0.390625 -1.375000 -1.765625 -2.156250q-1.359375 -0.781250 -4.046875 -0.781250l0.000000 -1.859375l21.046875 0.000000l0.000000 1.859375q-3.281250 0.000000 -4.406250 0.671875q-1.109375 0.656250 -1.750000 1.640625q-0.640625 0.968750 -0.640625 6.328125l0.000000 5.515625q0.000000 3.234375 0.468750 4.359375q0.468750 1.109375 2.140625 1.875000q1.687500 0.750000 4.765625 0.750000q5.328125 0.000000 10.109375 -2.921875"/>
<path id="c_8f20758764ac743c2e0d8760a082d31c" d="M10.640625 -27.875000q-0.046875 9.953125 4.843750 15.625000q4.875000 5.656250 11.468750 5.656250q4.390625 0.000000 7.640625 -2.406250q3.250000 -2.421875 5.453125 -8.281250l1.500000 0.968750q-1.015625 6.687500 -5.953125 12.187500q-4.921875 5.500000 -12.343750 5.500000q-8.062500 0.000000 -13.796875 -6.281250q-5.734375 -6.281250 -5.734375 -16.875000q0.000000 -11.468750 5.875000 -17.890625q5.890625 -6.421875 14.765625 -6.421875q7.531250 0.000000 12.359375 4.953125q4.828125 4.953125 4.828125 13.265625zM10.640625 -30.718750l20.703125 0.000000q-0.234375 -4.296875 -1.015625 -6.046875q-1.218750 -2.734375 -3.640625 -4.296875q-2.421875 -1.562500 -5.062500 -1.562500q-4.046875 0.000000 -7.250000 3.156250q-3.187500 3.140625 -3.734375 8.750000"/>
<path id="c_e0098dff20ff7f7c7c4d56942fda0f86" d="M17.093750 -13.765625l19.328125 -22.375000q-0.093750 -3.750000 -1.421875 -5.218750q-1.312500 -1.468750 -4.531250 -1.515625l0.000000 -1.859375l20.796875 0.000000l0.000000 1.859375q-3.265625 0.000000 -4.390625 0.671875q-1.125000 0.656250 -1.765625 1.640625q-0.625000 0.968750 -0.625000 6.328125l0.000000 23.734375q0.000000 5.171875 0.531250 6.171875q0.546875 1.000000 1.687500 1.765625q1.156250 0.750000 4.562500 0.750000l0.000000 1.812500l-21.625000 0.000000l0.000000 -1.812500q4.046875 0.000000 5.406250 -1.484375q1.375000 -1.484375 1.375000 -7.203125l0.000000 -21.046875l-19.328125 22.421875q0.093750 4.140625 1.171875 5.703125q1.078125 1.562500 4.640625 1.609375l0.000000 1.812500l-20.656250 0.000000l0.000000 -1.812500q4.343750 0.000000 5.562500 -1.578125q1.218750 -1.593750 1.218750 -7.109375l0.000000 -23.734375q0.000000 -5.218750 -0.546875 -6.171875q-0.531250 -0.953125 -1.656250 -1.703125q-1.109375 -0.765625 -4.578125 -0.765625l0.000000 -1.859375l21.625000 0.000000l0.000000 1.859375q-3.265625 0.000000 -4.390625 0.671875q-1.125000 0.656250 -1.765625 1.640625q-0.625000 0.968750 -0.625000 6.328125z"/>
<path id="c_d41d8cd98f00b204e9800998ecf8427e" d=""/>
<path id="c_5c366505ae6aa50f1e84e62c28064230" d="M48.000000 -0.000000l-13.187500 0.000000q-6.156250 -8.937500 -11.125000 -18.312500q-1.171875 -2.140625 -2.125000 -3.187500q-0.953125 -1.062500 -2.609375 -1.062500q-0.593750 0.000000 -1.859375 0.093750l0.000000 11.968750q0.000000 4.828125 0.562500 6.171875q0.562500 1.343750 2.015625 1.937500q1.468750 0.578125 4.937500 0.578125l0.000000 1.812500l-22.359375 0.000000l0.000000 -1.812500q4.343750 0.000000 5.562500 -1.578125q1.218750 -1.593750 1.218750 -7.109375l0.000000 -23.734375q0.000000 -5.218750 -0.546875 -6.171875q-0.531250 -0.953125 -1.656250 -1.703125q-1.109375 -0.765625 -4.578125 -0.765625l0.000000 -1.859375l22.359375 0.000000l0.000000 1.859375q-4.046875 0.000000 -5.000000 0.593750q-0.953125 0.578125 -1.734375 1.437500q-0.781250 0.859375 -0.781250 6.609375l0.000000 8.796875q1.125000 0.093750 1.515625 0.093750q2.968750 0.000000 5.578125 -1.687500q2.625000 -1.687500 4.671875 -7.156250q1.906250 -5.171875 3.140625 -6.968750q1.250000 -1.812500 3.468750 -2.953125q2.234375 -1.156250 4.671875 -1.156250q2.640625 0.000000 4.203125 1.281250q1.562500 1.265625 1.562500 3.312500q0.000000 1.703125 -1.125000 2.906250q-1.125000 1.187500 -3.125000 1.187500q-1.078125 0.000000 -2.687500 -0.578125q-2.046875 -0.734375 -3.125000 -0.734375q-2.250000 0.000000 -3.718750 3.859375q-1.656250 4.437500 -2.437500 5.734375q-0.781250 1.296875 -2.984375 3.437500q1.515625 0.437500 3.296875 2.250000q1.781250 1.812500 6.625000 10.296875q3.859375 6.796875 5.781250 8.609375q1.937500 1.796875 5.593750 1.890625z"/>
<path id="c_e8293e4f5ae2b5920b0d27f12467ed1b" d="M36.421875 -41.546875l-19.328125 0.000000l0.000000 31.046875q0.000000 5.171875 0.531250 6.171875q0.546875 1.000000 1.687500 1.765625q1.140625 0.750000 4.562500 0.750000l0.000000 1.812500l-21.625000 0.000000l0.000000 -1.812500q4.343750 0.000000 5.562500 -1.578125q1.218750 -1.593750 1.218750 -7.109375l0.000000 -23.734375q0.000000 -5.218750 -0.546875 -6.171875q-0.531250 -0.953125 -1.656250 -1.703125q-1.109375 -0.765625 -4.578125 -0.765625l0.000000 -1.859375l49.015625 0.000000l0.000000 1.859375q-3.265625 0.000000 -4.390625 0.671875q-1.125000 0.656250 -1.765625 1.640625q-0.625000 0.968750 -0.625000 6.328125l0.000000 23.734375q0.000000 5.171875 0.531250 6.171875q0.546875 1.000000 1.687500 1.765625q1.156250 0.750000 4.562500 0.750000l0.000000 1.812500l-21.625000 0.000000l0.000000 -1.812500q4.046875 0.000000 5.406250 -1.484375q1.375000 -1.484375 1.375000 -7.203125z"/>
<path id="c_6434c209dc220672c052910c6e627c24" d="M41.109375 -17.000000q-1.796875 8.843750 -7.078125 13.609375q-5.265625 4.765625 -11.671875 4.765625q-7.609375 0.000000 -13.281250 -6.390625q-5.656250 -6.406250 -5.656250 -17.296875q0.000000 -10.546875 6.265625 -17.140625q6.281250 -6.593750 15.062500 -6.593750q6.593750 0.000000 10.843750 3.500000q4.250000 3.484375 4.250000 7.250000q0.000000 1.843750 -1.203125 3.000000q-1.187500 1.140625 -3.343750 1.140625q-2.875000 0.000000 -4.343750 -1.859375q-0.828125 -1.015625 -1.093750 -3.890625q-0.265625 -2.890625 -1.984375 -4.406250q-1.703125 -1.468750 -4.734375 -1.468750q-4.875000 0.000000 -7.859375 3.625000q-3.953125 4.781250 -3.953125 12.640625q0.000000 8.015625 3.921875 14.140625q3.937500 6.125000 10.625000 6.125000q4.796875 0.000000 8.593750 -3.265625q2.687500 -2.250000 5.234375 -8.156250z"/>
<path id="c_310600ca0f5bbe2e9c600aeb2532eae0" d="M2.437500 -44.734375l38.671875 0.000000l1.953125 12.109375l-2.187500 0.000000q-0.593750 -3.656250 -1.968750 -5.656250q-1.359375 -2.000000 -3.125000 -2.625000q-1.750000 -0.640625 -6.000000 -0.640625l-3.906250 0.000000l0.000000 31.046875q0.000000 4.984375 0.609375 6.328125q0.609375 1.343750 1.968750 1.781250q1.375000 0.437500 6.265625 0.578125l0.000000 1.812500l-24.312500 0.000000l0.000000 -1.812500q4.687500 -0.093750 6.031250 -1.500000q1.343750 -1.421875 1.343750 -7.187500l0.000000 -31.046875l-4.015625 0.000000q-4.187500 0.000000 -5.703125 0.515625q-1.515625 0.500000 -2.906250 2.437500q-1.390625 1.921875 -2.375000 5.968750l-2.187500 0.000000z"/>
<path id="c_75c5ee7810887a08a711e193dc25e9b4" d="M-0.093750 -40.281250l13.765625 -5.562500l1.859375 0.000000l0.000000 10.437500q3.468750 -5.906250 6.953125 -8.265625q3.500000 -2.375000 7.343750 -2.375000q6.750000 0.000000 11.234375 5.281250q5.515625 6.437500 5.515625 16.796875q0.000000 11.562500 -6.640625 19.140625q-5.468750 6.203125 -13.765625 6.203125q-3.609375 0.000000 -6.250000 -1.031250q-1.953125 -0.734375 -4.390625 -2.937500l0.000000 13.625000q0.000000 4.593750 0.562500 5.828125q0.562500 1.250000 1.953125 1.984375q1.390625 0.734375 5.046875 0.734375l0.000000 1.812500l-23.437500 0.000000l0.000000 -1.812500l1.218750 0.000000q2.687500 0.046875 4.593750 -1.015625q0.921875 -0.546875 1.437500 -1.750000q0.515625 -1.187500 0.515625 -6.062500l0.000000 -42.296875q0.000000 -4.343750 -0.390625 -5.515625q-0.390625 -1.171875 -1.250000 -1.750000q-0.843750 -0.593750 -2.312500 -0.593750q-1.171875 0.000000 -2.984375 0.687500zM15.531250 -32.515625l0.000000 16.687500q0.000000 5.421875 0.437500 7.140625q0.687500 2.828125 3.343750 4.984375q2.656250 2.140625 6.718750 2.140625q4.875000 0.000000 7.906250 -3.812500q3.953125 -4.984375 3.953125 -14.015625q0.000000 -10.250000 -4.484375 -15.765625q-3.125000 -3.812500 -7.421875 -3.812500q-2.343750 0.000000 -4.640625 1.171875q-1.765625 0.875000 -5.812500 5.281250"/>
<path id="c_b7e9b0aa3e750d4290b3ee042c1c4ea1" d="M7.718750 -44.734375l39.984375 0.000000l0.000000 1.859375q-3.312500 0.000000 -4.421875 0.671875q-1.093750 0.656250 -1.734375 1.640625q-0.625000 0.968750 -0.625000 6.328125l0.000000 23.734375q0.000000 5.171875 0.531250 6.171875q0.546875 1.000000 1.687500 1.765625q1.140625 0.750000 4.562500 0.750000l0.000000 1.812500l-23.140625 0.000000l0.000000 -1.812500q3.765625 0.000000 5.203125 -0.390625q1.437500 -0.390625 2.265625 -1.875000q0.828125 -1.484375 0.828125 -6.421875l0.000000 -31.046875l-14.890625 0.000000l0.000000 18.843750q0.000000 10.687500 -0.953125 15.015625q-0.953125 4.312500 -3.765625 6.390625q-2.796875 2.078125 -6.406250 2.078125q-6.250000 0.000000 -6.250000 -5.171875q0.000000 -1.765625 1.000000 -2.890625q1.000000 -1.125000 2.609375 -1.125000q1.703125 0.000000 3.171875 1.421875q1.906250 1.859375 2.875000 1.859375q2.203125 0.000000 3.203125 -3.687500q1.000000 -3.687500 1.000000 -12.921875l0.000000 -9.859375q0.000000 -7.609375 -1.109375 -9.265625q-1.093750 -1.671875 -5.625000 -2.015625z"/>
<path id="c_3bc43c0abd15eaf6e9cd6ecbbc90760a" d="M17.093750 -24.812500l5.562500 -0.093750q19.921875 0.000000 19.921875 12.312500q0.000000 5.703125 -4.859375 9.156250q-4.859375 3.437500 -13.984375 3.437500l-21.484375 0.000000l0.000000 -1.812500q4.343750 0.000000 5.562500 -1.578125q1.218750 -1.593750 1.218750 -7.109375l0.000000 -23.734375q0.000000 -5.218750 -0.546875 -6.171875q-0.531250 -0.953125 -1.656250 -1.703125q-1.109375 -0.765625 -4.578125 -0.765625l0.000000 -1.859375l23.390625 0.000000l0.000000 1.859375q-4.843750 0.000000 -5.968750 0.562500q-1.109375 0.562500 -1.843750 1.468750q-0.734375 0.906250 -0.734375 6.609375zM17.093750 -3.859375q2.578125 0.687500 5.171875 0.687500q4.890625 0.000000 7.937500 -2.578125q3.046875 -2.593750 3.046875 -6.562500q0.000000 -9.375000 -13.031250 -9.375000q-1.125000 0.000000 -3.125000 0.062500z"/>
<path id="c_13d3e685a2d88a192cede84aec6ecbba" d="M25.000000 -46.046875q10.156250 0.000000 16.312500 7.718750q5.218750 6.593750 5.218750 15.140625q0.000000 6.000000 -2.890625 12.156250q-2.875000 6.140625 -7.921875 9.281250q-5.046875 3.125000 -11.250000 3.125000q-10.109375 0.000000 -16.062500 -8.062500q-5.031250 -6.796875 -5.031250 -15.234375q0.000000 -6.156250 3.046875 -12.234375q3.046875 -6.078125 8.031250 -8.984375q4.984375 -2.906250 10.546875 -2.906250M23.484375 -42.875000q-2.578125 0.000000 -5.203125 1.546875q-2.609375 1.531250 -4.218750 5.390625q-1.609375 3.859375 -1.609375 9.906250q0.000000 9.765625 3.875000 16.859375q3.890625 7.078125 10.234375 7.078125q4.734375 0.000000 7.812500 -3.906250q3.078125 -3.906250 3.078125 -13.437500q0.000000 -11.906250 -5.125000 -18.750000q-3.468750 -4.687500 -8.843750 -4.687500"/>
<path id="c_535c83b2da93c53780f9813747122d61" d="M38.578125 -44.734375l1.796875 12.218750l-2.140625 0.000000q-1.859375 -6.062500 -3.734375 -7.546875q-1.875000 -1.484375 -7.937500 -1.484375l-9.468750 0.000000l0.000000 31.046875q0.000000 5.171875 0.531250 6.171875q0.546875 1.000000 1.687500 1.765625q1.140625 0.750000 4.562500 0.750000l0.000000 1.812500l-22.359375 0.000000l0.000000 -1.812500q4.781250 -0.093750 6.140625 -1.484375q1.375000 -1.390625 1.375000 -7.203125l0.000000 -23.734375q0.000000 -4.734375 -0.546875 -6.078125q-0.531250 -1.343750 -1.875000 -1.921875q-1.328125 -0.593750 -5.093750 -0.640625l0.000000 -1.859375z"/>
<path id="c_ced8ece24396c1588bfe404c36a55cb9" d="M4.390625 -30.812500l1.859375 0.000000q0.593750 -5.125000 3.609375 -8.593750q3.031250 -3.468750 7.625000 -3.468750q4.921875 0.000000 8.234375 4.718750q3.328125 4.703125 4.265625 12.765625l-14.500000 0.000000l0.000000 3.171875l14.843750 0.000000l0.000000 2.390625q0.000000 9.718750 -3.859375 13.953125q-3.859375 4.218750 -9.625000 4.218750q-8.343750 0.000000 -13.859375 -7.859375l-1.671875 0.968750q6.796875 9.921875 16.515625 9.921875q9.562500 0.000000 15.609375 -7.156250q6.062500 -7.156250 6.062500 -17.171875q0.000000 -10.250000 -6.203125 -16.671875q-6.203125 -6.421875 -13.906250 -6.421875q-3.031250 0.000000 -7.578125 1.421875q-2.734375 0.828125 -3.515625 0.828125q-1.015625 0.000000 -2.046875 -0.937500l-1.859375 0.000000z"/>
<path id="c_eb422d62ef2edf28f5a7661f0a8619f6" d="M20.843750 -63.921875l13.187500 -5.515625l2.156250 0.000000l0.000000 27.500000q4.437500 -4.109375 9.031250 -4.109375q6.296875 0.000000 10.812500 6.937500q4.515625 6.937500 4.515625 16.796875q0.000000 9.671875 -4.593750 16.687500q-4.578125 7.000000 -11.125000 7.000000q-4.843750 0.000000 -8.640625 -4.312500l0.000000 13.828125q0.000000 4.875000 0.562500 6.218750q0.562500 1.343750 2.015625 1.906250q1.468750 0.562500 6.156250 0.562500l0.000000 1.812500l-24.078125 0.000000l0.000000 -1.812500q4.890625 0.000000 6.328125 -1.390625q1.437500 -1.390625 1.437500 -7.296875l0.000000 -13.828125q-3.656250 4.312500 -8.593750 4.312500q-6.781250 0.000000 -11.281250 -7.031250q-4.484375 -7.046875 -4.484375 -17.140625q0.000000 -9.140625 4.296875 -16.187500q4.296875 -7.062500 11.234375 -7.062500q5.125000 0.000000 8.828125 4.687500l0.000000 -12.109375q0.000000 -6.250000 -0.781250 -7.953125q-0.781250 -1.718750 -2.734375 -1.718750q-1.609375 0.000000 -3.515625 0.828125zM28.609375 -37.015625q-2.734375 -5.765625 -7.031250 -5.765625q-4.140625 0.000000 -6.468750 5.453125q-2.312500 5.437500 -2.312500 16.187500q0.000000 9.468750 2.312500 14.328125q2.328125 4.859375 6.468750 4.859375q3.812500 0.000000 7.031250 -4.437500zM36.187500 -7.234375q0.968750 2.546875 3.062500 3.921875q2.109375 1.359375 4.015625 1.359375q3.750000 0.000000 6.171875 -4.734375q2.421875 -4.734375 2.421875 -14.796875q0.000000 -21.296875 -8.453125 -21.296875q-3.562500 0.000000 -7.218750 3.968750z"/>
<path id="c_48ff79c8a1894d32f326dad33ab8319d" d="M51.265625 -1.812500l0.000000 14.218750l-1.796875 0.000000q-0.156250 -5.718750 -3.750000 -9.062500q-3.578125 -3.343750 -13.000000 -3.343750l-30.468750 0.000000l0.000000 -1.812500q4.343750 0.000000 5.562500 -1.578125q1.218750 -1.593750 1.218750 -7.109375l0.000000 -23.734375q0.000000 -5.218750 -0.546875 -6.171875q-0.531250 -0.953125 -1.656250 -1.703125q-1.109375 -0.765625 -4.578125 -0.765625l0.000000 -1.859375l21.625000 0.000000l0.000000 1.859375q-3.265625 0.000000 -4.390625 0.671875q-1.125000 0.656250 -1.765625 1.640625q-0.625000 0.968750 -0.625000 6.328125l0.000000 25.250000q0.000000 4.250000 0.750000 5.031250q0.765625 0.781250 4.859375 0.781250l7.906250 0.000000q4.546875 0.000000 5.171875 -0.828125q0.640625 -0.828125 0.640625 -5.375000l0.000000 -24.859375q0.000000 -4.640625 -0.484375 -5.968750q-0.484375 -1.343750 -1.906250 -2.000000q-1.406250 -0.671875 -4.390625 -0.671875l0.000000 -1.859375l21.625000 0.000000l0.000000 1.859375q-3.265625 0.000000 -4.390625 0.671875q-1.125000 0.656250 -1.765625 1.640625q-0.625000 0.968750 -0.625000 6.328125l0.000000 23.000000q0.000000 6.296875 1.125000 7.765625q1.125000 1.468750 5.656250 1.656250"/>
</defs>
<g style="fill: #000000; opacity: 1.000000" transform="translate(195.168750,278.316250)scale(0.120000)">
<use xlink:href="#c_1818d1cfada7f6d37e10aa1f9b131e20"/>
<use xlink:href="#c_5ded83c7768215a54fcbc33b4fb23b4e" x="50.097656"/>
<use xlink:href="#c_c63d997d1b9dff23cbba5e445fe5916f" x="103.613281"/>
<use xlink:href="#c_1c6c71b088f48ab7e2f07308a7745fc6" x="143.998047"/>
<use xlink:href="#c_8f20758764ac743c2e0d8760a082d31c" x="194.291016"/>
<use xlink:href="#c_5ded83c7768215a54fcbc33b4fb23b4e" x="238.675781"/>
<use xlink:href="#c_e0098dff20ff7f7c7c4d56942fda0f86" x="292.191406"/>
<use xlink:href="#c_8f20758764ac743c2e0d8760a082d31c" x="345.707031"/>
<use xlink:href="#c_d41d8cd98f00b204e9800998ecf8427e" x="390.091797"/>
<use xlink:href="#c_5c366505ae6aa50f1e84e62c28064230" x="415.091797"/>
<use xlink:href="#c_8f20758764ac743c2e0d8760a082d31c" x="461.175781"/>
<use xlink:href="#c_e8293e4f5ae2b5920b0d27f12467ed1b" x="505.560547"/>
<use xlink:href="#c_6434c209dc220672c052910c6e627c24" x="559.076172"/>
<use xlink:href="#c_310600ca0f5bbe2e9c600aeb2532eae0" x="603.460938"/>
<use xlink:href="#c_75c5ee7810887a08a711e193dc25e9b4" x="648.412109"/>
<use xlink:href="#c_c63d997d1b9dff23cbba5e445fe5916f" x="698.412109"/>
<use xlink:href="#c_b7e9b0aa3e750d4290b3ee042c1c4ea1" x="743.671875"/>
<use xlink:href="#c_3bc43c0abd15eaf6e9cd6ecbbc90760a" x="793.574219"/>
<use xlink:href="#c_5ded83c7768215a54fcbc33b4fb23b4e" x="839.179688"/>
<use xlink:href="#c_13d3e685a2d88a192cede84aec6ecbba" x="892.695313"/>
<use xlink:href="#c_535c83b2da93c53780f9813747122d61" x="942.695313"/>
<use xlink:href="#c_13d3e685a2d88a192cede84aec6ecbba" x="981.210938"/>
<use xlink:href="#c_d41d8cd98f00b204e9800998ecf8427e" x="1031.210938"/>
<use xlink:href="#c_5c366505ae6aa50f1e84e62c28064230" x="1056.210938"/>
<use xlink:href="#c_13d3e685a2d88a192cede84aec6ecbba" x="1099.669922"/>
<use xlink:href="#c_ced8ece24396c1588bfe404c36a55cb9" x="1150.919922"/>
<use xlink:href="#c_eb422d62ef2edf28f5a7661f0a8619f6" x="1193.214844"/>
<use xlink:href="#c_eb422d62ef2edf28f5a7661f0a8619f6" x="1257.384766"/>
<use xlink:href="#c_e0098dff20ff7f7c7c4d56942fda0f86" x="1322.179688"/>
<use xlink:href="#c_48ff79c8a1894d32f326dad33ab8319d" x="1375.695313"/>
<use xlink:href="#c_e0098dff20ff7f7c7c4d56942fda0f86" x="1429.210938"/>
<use xlink:href="#c_8f20758764ac743c2e0d8760a082d31c" x="1482.726563"/>
<use xlink:href="#c_5ded83c7768215a54fcbc33b4fb23b4e" x="1527.111328"/>
<use xlink:href="#c_310600ca0f5bbe2e9c600aeb2532eae0" x="1580.626953"/>
<use xlink:href="#c_c63d997d1b9dff23cbba5e445fe5916f" x="1625.578125"/>
</g>
</g>
</g>
<g id="matplotlib.axis2">
<g id="ytick1">
<g id="line2d16">
<defs><path id="m3400efa6b1638b3fea9e19e898273957" d="M0.000000 0.000000L4.000000 0.000000"/></defs>
<g ><use style="fill: none; stroke: #000000; stroke-width: 0.500000; stroke-linejoin: round; stroke-linecap: butt;  opacity: 1.000000" xlink:href="#m3400efa6b1638b3fea9e19e898273957" x="72.000000" y="251.910000"/>
</g></g>
<g id="line2d17">
<defs><path id="m20b58b2501143cb5e0a5e8f1ef6f1643" d="M0.000000 0.000000L-4.000000 0.000000"/></defs>
<g ><use style="fill: none; stroke: #000000; stroke-width: 0.500000; stroke-linejoin: round; stroke-linecap: butt;  opacity: 1.000000" xlink:href="#m20b58b2501143cb5e0a5e8f1ef6f1643" x="518.400000" y="251.910000"/>
</g></g>
<g id="text9">
<defs>
<path id="c_ed3e21196fb739f392806f09ca0594ef" d="M10.687500 -12.406250l10.312500 0.000000l0.000000 12.406250l-10.312500 0.000000z"/>
</defs>
<g style="fill: #000000; opacity: 1.000000" transform="translate(42.859375,256.277188)scale(0.120000)">
<use xlink:href="#c_7a2040fe3b94fcd41d0a72c84e93b115"/>
<use xlink:href="#c_ed3e21196fb739f392806f09ca0594ef" x="63.623047"/>
<use xlink:href="#c_7a2040fe3b94fcd41d0a72c84e93b115" x="95.410156"/>
<use xlink:href="#c_7a2040fe3b94fcd41d0a72c84e93b115" x="159.033203"/>
</g>
</g>
</g>
<g id="ytick2">
<g id="line2d18">
<g ><use style="fill: none; stroke: #000000; stroke-width: 0.500000; stroke-linejoin: round; stroke-linecap: butt;  opacity: 1.000000" xlink:href="#m3400efa6b1638b3fea9e19e898273957" x="72.000000" y="227.030000"/>
</g></g>
<g id="line2d19">
<g ><use style="fill: none; stroke: #000000; stroke-width: 0.500000; stroke-linejoin: round; stroke-linecap: butt;  opacity: 1.000000" xlink:href="#m20b58b2501143cb5e0a5e8f1ef6f1643" x="518.400000" y="227.030000"/>
</g></g>
<g id="text10">
<defs>
<path id="c_1260a2df50f305f3db244e29828f968e" d="M10.796875 -72.906250l38.718750 0.000000l0.000000 8.312500l-29.687500 0.000000l0.000000 17.859375q2.140625 -0.734375 4.281250 -1.093750q2.156250 -0.359375 4.312500 -0.359375q12.203125 0.000000 19.328125 6.687500q7.140625 6.687500 7.140625 18.109375q0.000000 11.765625 -7.328125 18.296875q-7.328125 6.515625 -20.656250 6.515625q-4.593750 0.000000 -9.359375 -0.781250q-4.750000 -0.781250 -9.828125 -2.343750l0.000000 -9.921875q4.390625 2.390625 9.078125 3.562500q4.687500 1.171875 9.906250 1.171875q8.453125 0.000000 13.375000 -4.437500q4.937500 -4.437500 4.937500 -12.062500q0.000000 -7.609375 -4.937500 -12.046875q-4.921875 -4.453125 -13.375000 -4.453125q-3.953125 0.000000 -7.890625 0.875000q-3.921875 0.875000 -8.015625 2.734375z"/>
</defs>
<g style="fill: #000000; opacity: 1.000000" transform="translate(43.109375,231.397188)scale(0.120000)">
<use xlink:href="#c_7a2040fe3b94fcd41d0a72c84e93b115"/>
<use xlink:href="#c_ed3e21196fb739f392806f09ca0594ef" x="63.623047"/>
<use xlink:href="#c_7a2040fe3b94fcd41d0a72c84e93b115" x="95.410156"/>
<use xlink:href="#c_1260a2df50f305f3db244e29828f968e" x="159.033203"/>
</g>
</g>
</g>
<g id="ytick3">
<g id="line2d20">
<g ><use style="fill: none; stroke: #000000; stroke-width: 0.500000; stroke-linejoin: round; stroke-linecap: butt;  opacity: 1.000000" xlink:href="#m3400efa6b1638b3fea9e19e898273957" x="72.000000" y="202.150000"/>
</g></g>
<g id="line2d21">
<g ><use style="fill: none; stroke: #000000; stroke-width: 0.500000; stroke-linejoin: round; stroke-linecap: butt;  opacity: 1.000000" xlink:href="#m20b58b2501143cb5e0a5e8f1ef6f1643" x="518.400000" y="202.150000"/>
</g></g>
<g id="text11">
<defs>
<path id="c_42baa63129a918535c52adb20d687ea7" d="M12.406250 -8.296875l16.109375 0.000000l0.000000 -55.625000l-17.531250 3.515625l0.000000 -8.984375l17.437500 -3.515625l9.859375 0.000000l0.000000 64.609375l16.109375 0.000000l0.000000 8.296875l-41.984375 0.000000z"/>
</defs>
<g style="fill: #000000; opacity: 1.000000" transform="translate(42.859375,206.517188)scale(0.120000)">
<use xlink:href="#c_7a2040fe3b94fcd41d0a72c84e93b115"/>
<use xlink:href="#c_ed3e21196fb739f392806f09ca0594ef" x="63.623047"/>
<use xlink:href="#c_42baa63129a918535c52adb20d687ea7" x="95.410156"/>
<use xlink:href="#c_7a2040fe3b94fcd41d0a72c84e93b115" x="159.033203"/>
</g>
</g>
</g>
<g id="ytick4">
<g id="line2d22">
<g ><use style="fill: none; stroke: #000000; stroke-width: 0.500000; stroke-linejoin: round; stroke-linecap: butt;  opacity: 1.000000" xlink:href="#m3400efa6b1638b3fea9e19e898273957" x="72.000000" y="177.270000"/>
</g></g>
<g id="line2d23">
<g ><use style="fill: none; stroke: #000000; stroke-width: 0.500000; stroke-linejoin: round; stroke-linecap: butt;  opacity: 1.000000" xlink:href="#m20b58b2501143cb5e0a5e8f1ef6f1643" x="518.400000" y="177.270000"/>
</g></g>
<g id="text12">
<g style="fill: #000000; opacity: 1.000000" transform="translate(43.109375,181.637188)scale(0.120000)">
<use xlink:href="#c_7a2040fe3b94fcd41d0a72c84e93b115"/>
<use xlink:href="#c_ed3e21196fb739f392806f09ca0594ef" x="63.623047"/>
<use xlink:href="#c_42baa63129a918535c52adb20d687ea7" x="95.410156"/>
<use xlink:href="#c_1260a2df50f305f3db244e29828f968e" x="159.033203"/>
</g>
</g>
</g>
<g id="ytick5">
<g id="line2d24">
<g ><use style="fill: none; stroke: #000000; stroke-width: 0.500000; stroke-linejoin: round; stroke-linecap: butt;  opacity: 1.000000" xlink:href="#m3400efa6b1638b3fea9e19e898273957" x="72.000000" y="152.390000"/>
</g></g>
<g id="line2d25">
<g ><use style="fill: none; stroke: #000000; stroke-width: 0.500000; stroke-linejoin: round; stroke-linecap: butt;  opacity: 1.000000" xlink:href="#m20b58b2501143cb5e0a5e8f1ef6f1643" x="518.400000" y="152.390000"/>
</g></g>
<g id="text13">
<g style="fill: #000000; opacity: 1.000000" transform="translate(42.859375,156.757188)scale(0.120000)">
<use xlink:href="#c_7a2040fe3b94fcd41d0a72c84e93b115"/>
<use xlink:href="#c_ed3e21196fb739f392806f09ca0594ef" x="63.623047"/>
<use xlink:href="#c_ed3f3ed3ebfbd18bcb9c012009a68ad1" x="95.410156"/>
<use xlink:href="#c_7a2040fe3b94fcd41d0a72c84e93b115" x="159.033203"/>
</g>
</g>
</g>
<g id="ytick6">
<g id="line2d26">
<g ><use style="fill: none; stroke: #000000; stroke-width: 0.500000; stroke-linejoin: round; stroke-linecap: butt;  opacity: 1.000000" xlink:href="#m3400efa6b1638b3fea9e19e898273957" x="72.000000" y="127.510000"/>
</g></g>
<g id="line2d27">
<g ><use style="fill: none; stroke: #000000; stroke-width: 0.500000; stroke-linejoin: round; stroke-linecap: butt;  opacity: 1.000000" xlink:href="#m20b58b2501143cb5e0a5e8f1ef6f1643" x="518.400000" y="127.510000"/>
</g></g>
<g id="text14">
<g style="fill: #000000; opacity: 1.000000" transform="translate(43.109375,131.877188)scale(0.120000)">
<use xlink:href="#c_7a2040fe3b94fcd41d0a72c84e93b115"/>
<use xlink:href="#c_ed3e21196fb739f392806f09ca0594ef" x="63.623047"/>
<use xlink:href="#c_ed3f3ed3ebfbd18bcb9c012009a68ad1" x="95.410156"/>
<use xlink:href="#c_1260a2df50f305f3db244e29828f968e" x="159.033203"/>
</g>
</g>
</g>
<g id="ytick7">
<g id="line2d28">
<g ><use style="fill: none; stroke: #000000; stroke-width: 0.500000; stroke-linejoin: round; stroke-linecap: butt;  opacity: 1.000000" xlink:href="#m3400efa6b1638b3fea9e19e898273957" x="72.000000" y="102.630000"/>
</g></g>
<g id="line2d29">
<g ><use style="fill: none; stroke: #000000; stroke-width: 0.500000; stroke-linejoin: round; stroke-linecap: butt;  opacity: 1.000000" xlink:href="#m20b58b2501143cb5e0a5e8f1ef6f1643" x="518.400000" y="102.630000"/>
</g></g>
<g id="text15">
<defs>
<path id="c_3dcfa38a02242cb63ec6726c6e70be7a" d="M40.578125 -39.312500q7.078125 1.515625 11.046875 6.312500q3.984375 4.781250 3.984375 11.812500q0.000000 10.781250 -7.421875 16.703125q-7.421875 5.906250 -21.093750 5.906250q-4.578125 0.000000 -9.437500 -0.906250q-4.859375 -0.906250 -10.031250 -2.718750l0.000000 -9.515625q4.093750 2.390625 8.968750 3.609375q4.890625 1.218750 10.218750 1.218750q9.265625 0.000000 14.125000 -3.656250q4.859375 -3.656250 4.859375 -10.640625q0.000000 -6.453125 -4.515625 -10.078125q-4.515625 -3.640625 -12.562500 -3.640625l-8.500000 0.000000l0.000000 -8.109375l8.890625 0.000000q7.265625 0.000000 11.125000 -2.906250q3.859375 -2.906250 3.859375 -8.375000q0.000000 -5.609375 -3.984375 -8.609375q-3.968750 -3.015625 -11.390625 -3.015625q-4.062500 0.000000 -8.703125 0.890625q-4.640625 0.875000 -10.203125 2.718750l0.000000 -8.781250q5.625000 -1.562500 10.531250 -2.343750q4.906250 -0.781250 9.250000 -0.781250q11.234375 0.000000 17.765625 5.109375q6.546875 5.093750 6.546875 13.781250q0.000000 6.062500 -3.468750 10.234375q-3.468750 4.171875 -9.859375 5.781250"/>
</defs>
<g style="fill: #000000; opacity: 1.000000" transform="translate(42.859375,106.997187)scale(0.120000)">
<use xlink:href="#c_7a2040fe3b94fcd41d0a72c84e93b115"/>
<use xlink:href="#c_ed3e21196fb739f392806f09ca0594ef" x="63.623047"/>
<use xlink:href="#c_3dcfa38a02242cb63ec6726c6e70be7a" x="95.410156"/>
<use xlink:href="#c_7a2040fe3b94fcd41d0a72c84e93b115" x="159.033203"/>
</g>
</g>
</g>
<g id="ytick8">
<g id="line2d30">
<g ><use style="fill: none; stroke: #000000; stroke-width: 0.500000; stroke-linejoin: round; stroke-linecap: butt;  opacity: 1.000000" xlink:href="#m3400efa6b1638b3fea9e19e898273957" x="72.000000" y="77.750000"/>
</g></g>
<g id="line2d31">
<g ><use style="fill: none; stroke: #000000; stroke-width: 0.500000; stroke-linejoin: round; stroke-linecap: butt;  opacity: 1.000000" xlink:href="#m20b58b2501143cb5e0a5e8f1ef6f1643" x="518.400000" y="77.750000"/>
</g></g>
<g id="text16">
<g style="fill: #000000; opacity: 1.000000" transform="translate(43.109375,82.117188)scale(0.120000)">
<use xlink:href="#c_7a2040fe3b94fcd41d0a72c84e93b115"/>
<use xlink:href="#c_ed3e21196fb739f392806f09ca0594ef" x="63.623047"/>
<use xlink:href="#c_3dcfa38a02242cb63ec6726c6e70be7a" x="95.410156"/>
<use xlink:href="#c_1260a2df50f305f3db244e29828f968e" x="159.033203"/>
</g>
</g>
</g>
<g id="ytick9">
<g id="line2d32">
<g ><use style="fill: none; stroke: #000000; stroke-width: 0.500000; stroke-linejoin: round; stroke-linecap: butt;  opacity: 1.000000" xlink:href="#m3400efa6b1638b3fea9e19e898273957" x="72.000000" y="52.870000"/>
</g></g>
<g id="line2d33">
<g ><use style="fill: none; stroke: #000000; stroke-width: 0.500000; stroke-linejoin: round; stroke-linecap: butt;  opacity: 1.000000" xlink:href="#m20b58b2501143cb5e0a5e8f1ef6f1643" x="518.400000" y="52.870000"/>
</g></g>
<g id="text17">
<g style="fill: #000000; opacity: 1.000000" transform="translate(42.859375,57.237188)scale(0.120000)">
<use xlink:href="#c_7a2040fe3b94fcd41d0a72c84e93b115"/>
<use xlink:href="#c_ed3e21196fb739f392806f09ca0594ef" x="63.623047"/>
<use xlink:href="#c_a0416418d96557a09b8c1332d34883ba" x="95.410156"/>
<use xlink:href="#c_7a2040fe3b94fcd41d0a72c84e93b115" x="159.033203"/>
</g>
</g>
</g>
<g id="ytick10">
<g id="line2d34">
<g ><use style="fill: none; stroke: #000000; stroke-width: 0.500000; stroke-linejoin: round; stroke-linecap: butt;  opacity: 1.000000" xlink:href="#m3400efa6b1638b3fea9e19e898273957" x="72.000000" y="27.990000"/>
</g></g>
<g id="line2d35">
<g ><use style="fill: none; stroke: #000000; stroke-width: 0.500000; stroke-linejoin: round; stroke-linecap: butt;  opacity: 1.000000" xlink:href="#m20b58b2501143cb5e0a5e8f1ef6f1643" x="518.400000" y="27.990000"/>
</g></g>
<g id="text18">
<g style="fill: #000000; opacity: 1.000000" transform="translate(43.109375,32.357187)scale(0.120000)">
<use xlink:href="#c_7a2040fe3b94fcd41d0a72c84e93b115"/>
<use xlink:href="#c_ed3e21196fb739f392806f09ca0594ef" x="63.623047"/>
<use xlink:href="#c_a0416418d96557a09b8c1332d34883ba" x="95.410156"/>
<use xlink:href="#c_1260a2df50f305f3db244e29828f968e" x="159.033203"/>
</g>
</g>
</g>
<g id="text19">
<defs>
<path id="c_8391d393947de1960afc5fa941052249" d="M46.187500 -33.796875q6.890625 1.468750 10.312500 4.687500q4.734375 4.500000 4.734375 11.000000q0.000000 4.921875 -3.125000 9.437500q-3.125000 4.515625 -8.578125 6.593750q-5.437500 2.078125 -16.625000 2.078125l-31.250000 0.000000l0.000000 -1.812500l2.500000 0.000000q4.140625 0.000000 5.953125 -2.625000q1.125000 -1.718750 1.125000 -7.281250l0.000000 -42.781250q0.000000 -6.140625 -1.421875 -7.750000q-1.906250 -2.156250 -5.656250 -2.156250l-2.500000 0.000000l0.000000 -1.812500l28.625000 0.000000q8.000000 0.000000 12.828125 1.171875q7.328125 1.765625 11.187500 6.234375q3.859375 4.468750 3.859375 10.281250q0.000000 4.968750 -3.031250 8.906250q-3.031250 3.937500 -8.937500 5.828125M20.609375 -36.421875q1.796875 0.343750 4.109375 0.515625q2.328125 0.156250 5.109375 0.156250q7.140625 0.000000 10.718750 -1.531250q3.593750 -1.531250 5.500000 -4.703125q1.906250 -3.187500 1.906250 -6.937500q0.000000 -5.812500 -4.734375 -9.906250q-4.734375 -4.109375 -13.828125 -4.109375q-4.875000 0.000000 -8.781250 1.078125zM20.609375 -4.781250q5.656250 1.312500 11.171875 1.312500q8.843750 0.000000 13.484375 -3.968750q4.640625 -3.984375 4.640625 -9.843750q0.000000 -3.859375 -2.109375 -7.421875q-2.093750 -3.562500 -6.828125 -5.609375q-4.734375 -2.062500 -11.718750 -2.062500q-3.031250 0.000000 -5.187500 0.109375q-2.140625 0.093750 -3.453125 0.328125z"/>
<path id="c_ba7023cb9edb69339948d1ff2df3a663" d="M43.750000 -44.734375l0.000000 1.859375q-3.031250 0.000000 -4.468750 0.828125q-1.437500 0.828125 -1.875000 2.109375q-0.437500 1.265625 -0.437500 5.703125l0.000000 23.734375q0.000000 4.250000 0.390625 5.593750q0.390625 1.343750 1.875000 2.218750q1.484375 0.875000 4.515625 0.875000l0.000000 1.812500l-21.625000 0.000000l0.000000 -1.812500q4.046875 0.000000 5.406250 -1.484375q1.375000 -1.484375 1.375000 -7.203125l0.000000 -9.718750l-2.000000 0.046875q-0.437500 0.000000 -1.562500 -0.046875l-14.265625 20.218750l-11.125000 0.000000l0.000000 -1.812500q2.437500 0.000000 3.390625 -0.656250q0.953125 -0.656250 3.546875 -4.312500l10.437500 -14.750000q-11.218750 -3.906250 -11.218750 -11.968750q0.000000 -4.531250 4.015625 -7.875000q4.031250 -3.359375 13.750000 -3.359375zM28.906250 -41.015625q-1.906250 -0.531250 -3.609375 -0.531250q-4.937500 0.000000 -7.375000 2.437500q-2.437500 2.437500 -2.437500 5.812500q0.000000 4.296875 3.453125 7.125000q3.468750 2.828125 8.750000 2.828125q0.531250 0.000000 1.218750 -0.093750z"/>
</defs>
<g style="fill: #000000; opacity: 1.000000" transform="translate(37.859375,169.387500)rotate(-90.0)scale(0.120000)">
<use xlink:href="#c_8391d393947de1960afc5fa941052249"/>
<use xlink:href="#c_8f20758764ac743c2e0d8760a082d31c" x="66.699219"/>
<use xlink:href="#c_75c5ee7810887a08a711e193dc25e9b4" x="111.083984"/>
<use xlink:href="#c_13d3e685a2d88a192cede84aec6ecbba" x="161.083984"/>
<use xlink:href="#c_ba7023cb9edb69339948d1ff2df3a663" x="209.208984"/>
<use xlink:href="#c_310600ca0f5bbe2e9c600aeb2532eae0" x="255.205078"/>
<use xlink:href="#c_5ded83c7768215a54fcbc33b4fb23b4e" x="298.906250"/>
<use xlink:href="#c_13d3e685a2d88a192cede84aec6ecbba" x="352.421875"/>
<use xlink:href="#c_6434c209dc220672c052910c6e627c24" x="404.921875"/>
<use xlink:href="#c_310600ca0f5bbe2e9c600aeb2532eae0" x="449.306641"/>
<use xlink:href="#c_3bc43c0abd15eaf6e9cd6ecbbc90760a" x="493.007812"/>
</g>
</g>
</g>
<g id="patch3">
<path style="fill: none; stroke: #000000; stroke-width: 1.000000; stroke-linejoin: round; stroke-linecap: square;  opacity: 1.000000"  d="M72.000000 27.990000L518.400000 27.990000"/>
</g>
<g id="patch4">
<path style="fill: none; stroke: #000000; stroke-width: 1.000000; stroke-linejoin: round; stroke-linecap: square;  opacity: 1.000000"  d="M518.400000 251.910000L518.400000 27.990000"/>
</g>
<g id="patch5">
<path style="fill: none; stroke: #000000; stroke-width: 1.000000; stroke-linejoin: round; stroke-linecap: square;  opacity: 1.000000"  d="M72.000000 251.910000L518.400000 251.910000"/>
</g>
<g id="patch6">
<path style="fill: none; stroke: #000000; stroke-width: 1.000000; stroke-linejoin: round; stroke-linecap: square;  opacity: 1.000000"  d="M72.000000 251.910000L72.000000 27.990000"/>
</g>
<g id="text20">
<defs>
<path id="c_6fbaa6b2a2adfcecb0c12c5d2796f6e3" d="M51.468750 -62.593750l-30.718750 0.000000l0.000000 50.531250q0.000000 6.546875 1.687500 8.312500q1.687500 1.750000 7.890625 1.937500l0.000000 1.812500l-28.515625 0.000000l0.000000 -1.812500q6.140625 -0.187500 7.843750 -1.937500q1.718750 -1.765625 1.718750 -8.312500l0.000000 -42.093750q0.000000 -6.531250 -1.718750 -8.281250q-1.703125 -1.765625 -7.843750 -1.968750l0.000000 -1.812500l68.593750 0.000000l0.000000 1.812500q-6.140625 0.203125 -7.859375 1.968750q-1.703125 1.750000 -1.703125 8.281250l0.000000 42.093750q0.000000 6.546875 1.703125 8.312500q1.718750 1.750000 7.859375 1.937500l0.000000 1.812500l-28.468750 0.000000l0.000000 -1.812500q6.109375 -0.187500 7.812500 -1.921875q1.718750 -1.734375 1.718750 -8.328125z"/>
<path id="c_1aa955ad52e3b20b27a273224d9ebdb4" d="M9.234375 -44.734375l39.453125 0.000000l0.000000 1.859375q-3.328125 0.000000 -4.421875 0.671875q-1.093750 0.656250 -1.734375 1.640625q-0.640625 0.968750 -0.640625 6.328125l0.000000 22.125000q0.000000 6.984375 1.187500 8.578125q1.203125 1.578125 5.609375 1.718750l0.000000 14.218750l-1.859375 0.000000q-0.203125 -4.000000 -1.984375 -6.984375q-1.781250 -2.984375 -4.953125 -4.203125q-3.171875 -1.218750 -9.375000 -1.218750l-11.515625 0.000000q-5.375000 0.000000 -8.406250 0.953125q-3.031250 0.953125 -5.062500 3.968750q-2.015625 3.031250 -2.453125 7.484375l-1.812500 0.000000l0.000000 -14.218750q4.015625 -0.140625 7.281250 -3.171875q3.265625 -3.031250 5.750000 -11.859375q2.500000 -8.843750 2.500000 -17.390625q0.000000 -8.390625 -7.562500 -8.640625zM20.015625 -41.546875l0.000000 2.671875q0.000000 23.984375 -8.687500 35.703125l16.609375 0.000000q4.484375 0.000000 5.171875 -0.750000q0.687500 -0.765625 0.687500 -5.593750l0.000000 -32.031250z"/>
<path id="c_3aa482dff67c2623657cca5f490a8c2a" d="M32.031250 -11.671875l13.968750 -33.062500l15.078125 0.000000l0.000000 1.859375q-3.312500 0.000000 -4.421875 0.671875q-1.093750 0.656250 -1.734375 1.640625q-0.625000 0.968750 -0.625000 6.328125l0.000000 23.734375q0.000000 4.640625 0.453125 5.984375q0.468750 1.343750 1.906250 2.031250q1.453125 0.671875 4.421875 0.671875l0.000000 1.812500l-21.625000 0.000000l0.000000 -1.812500q4.000000 0.000000 5.359375 -1.484375q1.375000 -1.484375 1.375000 -7.203125l0.000000 -26.906250l-15.812500 37.406250l-1.718750 0.000000l-16.109375 -37.406250l0.000000 26.906250q0.000000 4.640625 0.484375 5.984375q0.500000 1.343750 1.906250 2.031250q1.421875 0.671875 4.406250 0.671875l0.000000 1.812500l-17.093750 0.000000l0.000000 -1.812500q4.343750 0.000000 5.562500 -1.578125q1.218750 -1.593750 1.218750 -7.109375l0.000000 -23.734375q0.000000 -5.218750 -0.546875 -6.171875q-0.531250 -0.953125 -1.656250 -1.703125q-1.109375 -0.765625 -4.578125 -0.765625l0.000000 -1.859375l15.718750 0.000000z"/>
</defs>
<g style="fill: #000000; opacity: 1.000000" transform="translate(212.371875,20.427500)scale(0.120000)">
<use xlink:href="#c_6fbaa6b2a2adfcecb0c12c5d2796f6e3"/>
<use xlink:href="#c_b7e9b0aa3e750d4290b3ee042c1c4ea1" x="72.216797"/>
<use xlink:href="#c_13d3e685a2d88a192cede84aec6ecbba" x="122.119141"/>
<use xlink:href="#c_310600ca0f5bbe2e9c600aeb2532eae0" x="170.744141"/>
<use xlink:href="#c_5ded83c7768215a54fcbc33b4fb23b4e" x="214.445313"/>
<use xlink:href="#c_13d3e685a2d88a192cede84aec6ecbba" x="267.960938"/>
<use xlink:href="#c_6434c209dc220672c052910c6e627c24" x="320.460938"/>
<use xlink:href="#c_310600ca0f5bbe2e9c600aeb2532eae0" x="364.845703"/>
<use xlink:href="#c_3bc43c0abd15eaf6e9cd6ecbbc90760a" x="408.546875"/>
<use xlink:href="#c_d41d8cd98f00b204e9800998ecf8427e" x="454.152344"/>
<use xlink:href="#c_75c5ee7810887a08a711e193dc25e9b4" x="479.152344"/>
<use xlink:href="#c_c63d997d1b9dff23cbba5e445fe5916f" x="529.152344"/>
<use xlink:href="#c_6434c209dc220672c052910c6e627c24" x="573.537109"/>
<use xlink:href="#c_e8293e4f5ae2b5920b0d27f12467ed1b" x="617.921875"/>
<use xlink:href="#c_75c5ee7810887a08a711e193dc25e9b4" x="671.437500"/>
<use xlink:href="#c_8f20758764ac743c2e0d8760a082d31c" x="721.437500"/>
<use xlink:href="#c_1aa955ad52e3b20b27a273224d9ebdb4" x="764.447266"/>
<use xlink:href="#c_8f20758764ac743c2e0d8760a082d31c" x="815.326172"/>
<use xlink:href="#c_b7e9b0aa3e750d4290b3ee042c1c4ea1" x="859.710937"/>
<use xlink:href="#c_8f20758764ac743c2e0d8760a082d31c" x="909.613281"/>
<use xlink:href="#c_5ded83c7768215a54fcbc33b4fb23b4e" x="953.998047"/>
<use xlink:href="#c_e0098dff20ff7f7c7c4d56942fda0f86" x="1007.513672"/>
<use xlink:href="#c_ba7023cb9edb69339948d1ff2df3a663" x="1061.029297"/>
<use xlink:href="#c_d41d8cd98f00b204e9800998ecf8427e" x="1107.025391"/>
<use xlink:href="#c_6434c209dc220672c052910c6e627c24" x="1132.025391"/>
<use xlink:href="#c_3aa482dff67c2623657cca5f490a8c2a" x="1176.410156"/>
<use xlink:href="#c_8f20758764ac743c2e0d8760a082d31c" x="1239.691406"/>
<use xlink:href="#c_6434c209dc220672c052910c6e627c24" x="1286.576172"/>
<use xlink:href="#c_e0098dff20ff7f7c7c4d56942fda0f86" x="1330.960938"/>
</g>
</g>
</g>
</g>
</svg>
